<svg xmlns="http://www.w3.org/2000/svg" viewBox="0 0 24 24">
  	<path d="M24 7.64c0,1.2 -0.98,2.18 -2.18,2.18 -0.2,0 -0.38,-0.02 -0.56,-0.08l-3.88 3.88c0.05,0.17 0.08,0.37 0.08,0.56 0,1.2 -0.99,2.18 -2.19,2.18 -1.2,0 -2.18,-0.98 -2.18,-2.18 0,-0.19 0.02,-0.39 0.08,-0.57l-2.78 -2.78c-0.18,0.06 -0.37,0.08 -0.57,0.08 -0.2,0 -0.39,-0.02 -0.57,-0.08l-4.96 4.98c0.05,0.17 0.07,0.36 0.07,0.55 0,1.2 -0.98,2.19 -2.18,2.19 -1.2,0 -2.18,-0.99 -2.18,-2.19 0,-1.2 0.98,-2.18 2.18,-2.18 0.2,0 0.38,0.02 0.56,0.08l4.97 -4.97c-0.05,-0.17 -0.07,-0.37 -0.07,-0.56 0,-1.2 0.98,-2.18 2.18,-2.18 1.2,0 2.18,0.98 2.18,2.18 0,0.19 -0.02,0.39 -0.08,0.57l2.79 2.78c0.17,-0.06 0.37,-0.08 0.56,-0.08 0.2,0 0.4,0.02 0.57,0.08l3.87 -3.89c-0.05,-0.17 -0.07,-0.36 -0.07,-0.55 0,-1.2 0.98,-2.19 2.18,-2.19 1.2,0 2.18,0.99 2.18,2.19z"/>
</svg>
