<svg xmlns="http://www.w3.org/2000/svg" viewBox="0 0 24 24">
  	<path d="M12 6l0 -4.79 -11.99 0 0 21.58 23.98 0 0 -16.79 -11.99 0zm-7.19 14.39l-2.4 0 0 -2.39 2.4 0 0 2.39zm0 -4.79l-2.4 0 0 -2.4 2.4 0 0 2.4zm0 -4.8l-2.4 0 0 -2.4 2.4 0 0 2.4zm0 -4.8l-2.4 0 0 -2.39 2.4 0 0 2.39zm4.79 14.39l-2.4 0 0 -2.39 2.4 0 0 2.39zm0 -4.79l-2.4 0 0 -2.4 2.4 0 0 2.4zm0 -4.8l-2.4 0 0 -2.4 2.4 0 0 2.4zm0 -4.8l-2.4 0 0 -2.39 2.4 0 0 2.39zm11.99 14.39l-9.59 0 0 -2.39 2.4 0 0 -2.4 -2.4 0 0 -2.4 2.4 0 0 -2.4 -2.4 0 0 -2.4 9.59 0 0 11.99 0 0zm-2.39 -9.59l-2.4 0 0 2.4 2.4 0 0 -2.4zm0 4.8l-2.4 0 0 2.4 2.4 0 0 -2.4 0 0z"/>
</svg>
