<svg xmlns="http://www.w3.org/2000/svg" viewBox="0 0 24 24">
   	<path d="M10.71 4.26l3.87 0 4.25 -4.26 5.16 3.34 -2.95 4.79 -10.33 0 0 2.58c0,0.71 -0.58,1.3 -1.29,1.3 -0.71,0 -1.29,-0.59 -1.29,-1.3l0 -3.87c0,-1.42 1.16,-2.58 2.58,-2.58l0 0zm-7.75 6.45l0 5.17 -2.95 2.96 3.33 5.16 7.37 -5.54 5.16 0c0.71,0 1.29,-0.58 1.29,-1.29l0 -1.29 1.3 0c0.71,0 1.29,-0.58 1.29,-1.29l0 -1.29 1.29 0c0.71,0 1.29,-0.58 1.29,-1.29l0 -1.3 -9.04 0 0 1.3c0,1.42 -1.16,2.58 -2.58,2.58l-2.58 0c-1.42,0 -2.59,-1.16 -2.59,-2.58l0 -3.88 -2.58 2.58z"/>
</svg>
