<svg xmlns="http://www.w3.org/2000/svg" viewBox="0 0 24 24">
   	<path d="M12 16.42c-5.58,0 -10.11,2.26 -10.11,5.05l0 2.53 20.22 0 0 -2.53c0,-2.79 -4.53,-5.05 -10.11,-5.05l0 0zm-5.05 -7.58c0,2.79 2.26,5.05 5.05,5.05 2.79,0 5.05,-2.26 5.05,-5.05l-10.1 0zm4.42 -8.84c-0.38,0 -0.63,0.26 -0.63,0.63l0 3.79 -1.27 0 0 -3.16c0,0 -2.84,1.09 -2.84,4.74 0,0 -0.95,0.18 -0.95,1.58l12.64 0c-0.07,-1.4 -0.95,-1.58 -0.95,-1.58 0,-3.65 -2.84,-4.74 -2.84,-4.74l0 3.16 -1.27 0 0 -3.79c0,-0.37 -0.24,-0.63 -0.63,-0.63l-1.26 0z"/>
</svg>
