<svg xmlns="http://www.w3.org/2000/svg" viewBox="0 0 24 24">
  	<path d="M6.11 6.76l9.16 0 0 -1.31 -9.16 0 0 1.31 0 0zm0 2.62l9.16 0 0 -1.31 -9.16 0 0 1.31zm0 2.62l9.16 0 0 -1.31 -9.16 0 0 1.31 0 0zm10.47 0l1.31 0 0 -1.31 -1.31 0 0 1.31 0 0zm0 -6.55l0 1.31 1.31 0 0 -1.31 -1.31 0zm0 3.93l1.31 0 0 -1.31 -1.31 0 0 1.31zm5.24 -8.29l-19.64 0c-1.2,0 -2.18,0.98 -2.18,2.18l0 13.09c0,1.2 0.98,2.19 2.18,2.19l7.64 0 -2.18 3.27 0 1.09 8.72 0 0 -1.09 -2.18 -3.27 7.64 0c1.2,0 2.18,-0.99 2.18,-2.19l0 -13.09c0,-1.2 -0.98,-2.18 -2.18,-2.18l0 0zm0 13.09l-19.64 0 0 -10.91 19.64 0 0 10.91 0 0z"/>
</svg>
