<svg xmlns="http://www.w3.org/2000/svg" viewBox="0 0 24 24">
  	<path d="M15.27 12c0,-1.42 -0.91,-2.62 -2.18,-3.08l0 -2.57c1.27,-0.46 2.18,-1.66 2.18,-3.08 0,-1.81 -1.46,-3.27 -3.27,-3.27 -1.81,0 -3.27,1.46 -3.27,3.27 0,1.42 0.91,2.62 2.18,3.08l0 2.58c-1.27,0.45 -2.18,1.65 -2.18,3.07 0,1.42 0.91,2.62 2.18,3.08l0 2.57c-1.27,0.46 -2.18,1.66 -2.18,3.08 0,1.81 1.46,3.27 3.27,3.27 1.81,0 3.27,-1.46 3.27,-3.27 0,-1.42 -0.91,-2.62 -2.18,-3.08l0 -2.57c1.27,-0.46 2.18,-1.66 2.18,-3.08l0 0zm-3.27 -9.82c0.6,0 1.09,0.49 1.09,1.09 0,0.6 -0.49,1.09 -1.09,1.09 -0.6,0 -1.09,-0.49 -1.09,-1.09 0,-0.6 0.49,-1.09 1.09,-1.09l0 0zm0 19.64c-0.6,0 -1.09,-0.49 -1.09,-1.09 0,-0.6 0.49,-1.09 1.09,-1.09 0.6,0 1.09,0.49 1.09,1.09 0,0.6 -0.49,1.09 -1.09,1.09z"/>
</svg>
