<svg xmlns="http://www.w3.org/2000/svg" viewBox="0 0 24 24">
   	<path d="M20.73 7.09l-1.09 0 -2.19 0 -2.18 0 0 6.55 -14.18 0 0 3.27 1.09 0c0,1.81 1.46,3.27 3.27,3.27 1.81,0 3.28,-1.46 3.28,-3.27l6.54 0c0,1.81 1.47,3.27 3.28,3.27 1.81,0 3.27,-1.46 3.27,-3.27l2.18 0 0 -5.46 -3.27 -4.36 0 0zm-15.28 11.46c-0.9,0 -1.63,-0.73 -1.63,-1.64 0,-0.91 0.73,-1.64 1.63,-1.64 0.91,0 1.64,0.73 1.64,1.64 0,0.91 -0.73,1.64 -1.64,1.64l0 0zm13.1 0c-0.91,0 -1.64,-0.73 -1.64,-1.64 0,-0.91 0.73,-1.64 1.64,-1.64 0.9,0 1.63,0.73 1.63,1.64 0,0.91 -0.73,1.64 -1.63,1.64l0 0zm-1.1 -7.1l0 -2.72 2.73 0 2.14 2.72 -4.87 0 0 0zm1.1 -5.45l-4.37 0 0 6.55 -12 0 -1.56 -5.46 -0.62 0 0 -2.18 13.09 0 1.09 -1.09 4.37 0 0 2.18z"/>
</svg>
