<?xml version="1.0" encoding="UTF-8"?>
<!DOCTYPE svg PUBLIC "-//W3C//DTD SVG 1.0//EN" "http://www.w3.org/TR/2001/REC-SVG-20010904/DTD/svg10.dtd">
<!-- Creator: CorelDRAW 2020 (64 Bit) -->
<svg xmlns="http://www.w3.org/2000/svg" xml:space="preserve" width="24px" height="24px" version="1.0" style="shape-rendering:geometricPrecision; text-rendering:geometricPrecision; image-rendering:optimizeQuality; fill-rule:evenodd; clip-rule:evenodd"
viewBox="0 0 24 24"
 xmlns:xlink="http://www.w3.org/1999/xlink"
 xmlns:xodm="http://www.corel.com/coreldraw/odm/2003">
 <defs>
  <style type="text/css">
   <![CDATA[
    .fil0 {fill:none}
   ]]>
  </style>
 </defs>
 <g id="Camada_x0020_1">
  <metadata id="CorelCorpID_0Corel-Layer"/>
  <polygon class="fil0" points="0,0 24,0 24,24 0,24 "/>
  <rect class="fil0" width="24" height="24"/>
  <path class="fil1" d="M18.08 17.34c-0.79,0.08 -1.62,0.14 -2.49,0.14 -0.4,0 -1.2,0 -1.67,-0.05 -2.38,-0.24 -5.92,-0.56 -8.05,-2.19 0.17,-0.23 1.12,-2.27 1.48,-2.82 0.95,-1.47 2.54,-3.46 3.7,-4.41 0.75,-0.61 1.45,-1.15 2.32,-1.49 0.17,0.27 1.59,1.97 1.93,2.51 0.93,1.49 2.07,3.77 2.44,5.22 0.27,1.06 0.47,2.02 0.34,3.09zm-18.03 -0.81c0,4.51 3.4,5.95 7.43,6.86 0.65,0.15 1.36,0.26 2.15,0.33l0.02 0 0.03 0 0.04 0 0.03 0 0.02 0.01 0.01 0 0.04 0 0.03 0 0.04 0.01 0.02 0 0.01 0 0.04 0 0.04 0.01 0.03 0 0.02 0 0.02 0 0.04 0 0.04 0.01 0.04 0 0 0 0.04 0 0.04 0 0.05 0 0.02 0 0.02 0.01 0.04 0 0.04 0 0.04 0 0 0 0.04 0 0.04 0.01 0.05 0 0.08 0 0.04 0 0.04 0 0.01 0.01 0.04 0c0.56,0.01 1.15,0.02 1.77,0l0.04 -0.01 0.04 0 0.01 0 0.04 0 0.04 0 0.08 0 0.02 0c2.1,-0.06 4.1,-0.31 5.25,-0.6l0.05 -0.02 0 0 0.05 -0.01 0.05 -0.01 0.01 -0.01 0.05 -0.01 0.04 -0.01 0.01 0 0.06 -0.02 0.03 -0.01c0.39,-0.11 0.78,-0.26 1.15,-0.43l0.03 -0.01 0.07 -0.03 0.02 -0.02 0.08 -0.03 0.02 -0.01c0.74,-0.34 1.59,-0.82 2.32,-1.45l0.02 -0.02 0.04 -0.03c0.23,-0.19 0.42,-0.37 0.55,-0.52 0.11,-0.14 0.22,-0.28 0.31,-0.43 0.27,-0.36 0.48,-0.77 0.61,-1.2 0.17,-0.51 0.24,-1.11 0.26,-1.7l0 -0.02 0 -0.01 0 -0.04 0 0 0 -0.03 0 -0.02 0 -0.01 0 -0.03 0 -0.01 0 -0.03 0 -0.02 0 -0.01 0 -0.04 0 0 0 -0.03 0 -0.02 0 -0.08c-0.01,-2.3 -0.98,-4.53 -1.1,-4.94 -0.07,-0.23 -0.25,-0.57 -0.49,-0.97 -0.77,-1.81 -2.39,-4.8 -3.93,-6.61 -1.33,-1.57 -2.58,-2.83 -3.58,-3.35 -3.69,-1.91 -7.53,0.16 -9.4,3.46l-0.01 0.01 0 0c-2.18,3.28 -5.38,8.28 -5.38,12.13z"/>
 </g>
</svg>
