<?xml version="1.0" encoding="UTF-8"?>
<!DOCTYPE svg PUBLIC "-//W3C//DTD SVG 1.1//EN" "http://www.w3.org/Graphics/SVG/1.1/DTD/svg11.dtd">
<!-- Creator: CorelDRAW 2018 (64 Bit Versão de avaliação) -->
<svg xmlns="http://www.w3.org/2000/svg" xml:space="preserve" width="76.7078mm" height="75.7766mm" version="1.1" style="shape-rendering:geometricPrecision; text-rendering:geometricPrecision; image-rendering:optimizeQuality; fill-rule:evenodd; clip-rule:evenodd"
viewBox="0 0 76.7078 75.7766"
 xmlns:xlink="http://www.w3.org/1999/xlink">
 <defs>
  <style type="text/css">
   <![CDATA[
    .fil0 {fill:url(#id0)}
    .fil1 {fill:url(#id1)}
    .fil2 {fill:url(#id2)}
   ]]>
  </style>
  <linearGradient id="id0" gradientUnits="userSpaceOnUse" x1="75.2281" y1="33.0729" x2="1.4789" y2="51.9737">
   <stop offset="0" style="stop-opacity:1; stop-color:#0B5113"/>
   <stop offset="0.670588" style="stop-opacity:1; stop-color:#589424"/>
   <stop offset="1" style="stop-opacity:1; stop-color:#A5D835"/>
  </linearGradient>
  <linearGradient id="id1" gradientUnits="userSpaceOnUse" x1="67.1993" y1="16.4285" x2="18.1934" y2="45.471">
   <stop offset="0" style="stop-opacity:1; stop-color:#0B5113"/>
   <stop offset="0.588235" style="stop-opacity:1; stop-color:#548C1F"/>
   <stop offset="1" style="stop-opacity:1; stop-color:#9EC72B"/>
  </linearGradient>
  <linearGradient id="id2" gradientUnits="userSpaceOnUse" x1="31.3281" y1="28.9633" x2="60.7824" y2="74.9098">
   <stop offset="0" style="stop-opacity:1; stop-color:#0B5113"/>
   <stop offset="0.458824" style="stop-opacity:1; stop-color:#568D1F"/>
   <stop offset="1" style="stop-opacity:1; stop-color:#A1C92B"/>
  </linearGradient>
 </defs>
 <g id="Camada_x0020_1">
  <metadata id="CorelCorpID_0Corel-Layer"/>
  <g id="_2043555241536">
   <path class="fil0" d="M-0.0074 52.4392c0,14.4927 10.9103,19.0829 23.8532,22.0205 7.8384,1.779 18.7703,1.8848 32.7057,-0.3986 6.7118,-1.0996 14.1694,-6.2351 16.3429,-8.7836 2.9577,-3.4682 3.82,-8.4539 3.82,-11.7168 -9.0031,0 -17.2363,2.5799 -27.3685,2.5799 -1.3023,0 -3.8578,-0.0262 -5.3629,-0.1742 -9.0305,-0.8895 -23.2282,-2.1824 -29.0467,-10.2769 -1.0322,-1.4359 -1.8945,-3.2019 -2.5314,-5.4311 -0.9701,-3.3947 -1.0141,-7.1442 -0.5451,-10.7521 0.1496,-1.15 0.4617,-2.2407 0.7308,-3.3441 0.1575,-0.6471 0.5278,-1.8347 0.7323,-2.5751 0.9244,-3.3436 7.0059,-14.6484 6.8705,-14.3192 -0.2482,0.6043 0.0763,-0.2961 -1.9166,2.6824 -6.9827,10.4375 -18.2842,27.4951 -18.2842,40.4889z"/>
   <path class="fil1" d="M15.8704 16.2559c-1.3428,3.0798 -4.1216,10.3149 -4.5721,15.8724 -0.2969,3.662 0.3466,7.9688 1.8832,11.2108 0.8276,1.7454 1.9792,3.3158 2.9711,4.3341 0.3961,0.4065 0.7312,0.6869 1.0366,0.9372 0.0487,0.0399 0.1833,0.1495 0.232,0.1865l0.442 0.336c0.023,0.0171 0.0698,-0.0019 0.1184,-0.0331 0.0486,-0.0313 -0.2276,0.2736 0.1153,-0.0932 0.343,-0.3669 3.5952,-7.3192 4.7666,-9.1214 3.0621,-4.7103 8.1646,-11.1237 11.8996,-14.1648 4.8217,-3.9269 9.0456,-6.9136 17.9485,-5.8844 6.7999,0.7861 12.6241,6.9443 16.1323,12.4876 2.2297,3.5239 4.0617,7.1101 4.1732,6.7227 0.5351,-1.8608 -7.0354,-17.7196 -14.0481,-25.9668 -4.2806,-5.0341 -8.2893,-9.0756 -11.4911,-10.7356 -12.865,-6.671 -26.3033,1.7463 -31.6075,13.912z"/>
   <path class="fil2" d="M73.1636 37.438c0.4026,1.3015 3.5003,8.4682 3.5508,15.8684 0.0155,2.247 -0.2233,4.7527 -0.838,6.7296 -2.6386,8.4885 -14.1598,12.715 -17.3888,13.6059 -3.6043,0.9941 -10.4902,1.9121 -17.6953,2.0777 -2.9638,0.0682 -6.0091,0.0866 -8.7602,-0.1088 -2.4346,-0.1728 -4.644,-0.4905 -6.3966,-0.8952 -0.7198,-0.166 -1.3629,-0.3468 -1.9125,-0.5383 -0.0113,-0.0039 23.1269,1.9926 30.2774,-9.6567 4.6881,-7.638 3.762,-12.7277 2.2354,-18.7558 -1.182,-4.6692 -4.8448,-12.0008 -7.8239,-16.764 -1.1401,-1.8225 -6.0717,-7.7035 -6.2597,-8.1692 -0.188,-0.4656 -0.028,-0.0866 -0.036,-0.1441 -0.0075,-0.0572 -0.0052,-0.1075 0.0198,-0.1209l0.4914 -0.2592c0.0541,-0.0286 0.2102,-0.1044 0.267,-0.1315 0.3557,-0.1715 0.7512,-0.3571 1.2867,-0.5446 1.3419,-0.47 3.2515,-0.8517 5.1831,-0.8659 3.5876,-0.0257 7.7639,1.2078 10.959,3.0212 4.8486,2.7527 11.848,12.4432 12.8404,15.6514z"/>
  </g>
 </g>
</svg>
