<svg xmlns="http://www.w3.org/2000/svg" viewBox="0 0 24 24">
  <path d="M16.36 5.45l0 12.55c0,2.41 -1.95,4.37 -4.36,4.37 -2.41,0 -4.36,-1.96 -4.36,-4.37l0 -13.64c0,-1.5 1.22,-2.73 2.72,-2.73 1.51,0 2.73,1.23 2.73,2.73l0 11.46c0,0.6 -0.49,1.09 -1.09,1.09 -0.6,0 -1.09,-0.49 -1.09,-1.09l0 -10.37 -1.64 0 0 10.37c0,1.5 1.22,2.73 2.73,2.73 1.51,0 2.73,-1.23 2.73,-2.73l0 -11.46c0,-2.41 -1.96,-4.36 -4.37,-4.36 -2.41,0 -4.36,1.95 -4.36,4.36l0 13.64c0,3.32 2.68,6 6,6 3.32,0 6,-2.68 6,-6l0 -12.55 -1.64 0z"/>
</svg>
