<svg xmlns="http://www.w3.org/2000/svg" viewBox="0 0 24 24">
  	<path d="M17.4 12c1.66,0 2.99,-1.34 2.99,-3 0,-1.66 -1.33,-3 -2.99,-3 -1.66,0 -3,1.34 -3,3 0,1.66 1.34,3 3,3l0 0zm-9 -1.2c1.99,0 3.59,-1.61 3.59,-3.6 0,-1.99 -1.6,-3.6 -3.59,-3.6 -1.99,0 -3.6,1.61 -3.6,3.6 0,1.99 1.61,3.6 3.6,3.6l0 0zm9 3.6c-2.2,0 -6.6,1.1 -6.6,3.3l0 2.7 13.2 0 0 -2.7c0,-2.2 -4.4,-3.3 -6.6,-3.3zm-9 -1.2c-2.8,0 -8.4,1.4 -8.4,4.2l0 3 8.4 0 0 -2.7c0,-1.02 0.4,-2.81 2.84,-4.16 -1.04,-0.22 -2.05,-0.34 -2.84,-0.34z"/>
</svg>
