<svg xmlns="http://www.w3.org/2000/svg" viewBox="0 0 24 24">
   	<path d="M0 12.27l11.59 0 0 2.57 -11.59 0 0 -2.57 0 0zm0.64 3.22l10.3 0 0 8.37 -10.3 0 0 -8.37 0 0zm3.54 1.93c-0.17,0 -0.32,0.14 -0.32,0.32l0 0.97 3.86 0 0 -0.97c0,-0.18 -0.14,-0.32 -0.32,-0.32l-3.22 0zm8.24 -5.15l11.58 0 0 2.57 -11.58 0 0 -2.57 0 0zm0.64 3.22l10.3 0 0 8.37 -10.3 0 0 -8.37 0 0zm3.54 1.93c-0.18,0 -0.32,0.14 -0.32,0.32l0 0.97 3.86 0 0 -0.97c0,-0.18 -0.14,-0.32 -0.32,-0.32l-3.22 0zm-10.52 -17.27l11.59 0 0 2.57 -11.59 0 0 -2.57 0 0zm0.65 3.21l10.3 0 0 8.37 -10.3 0 0 -8.37 0 0zm3.54 1.93c-0.18,0 -0.33,0.15 -0.33,0.33l0 0.96 3.87 0 0 -0.96c0,-0.18 -0.15,-0.33 -0.32,-0.33l-3.22 0z"/>
</svg>
