<svg xmlns="http://www.w3.org/2000/svg" viewBox="0 0 24 24">
   	<path d="M17.57 22.13l-2.68 -4.64c1.31,-0.96 2.22,-2.45 2.4,-4.16l5.38 0c-0.23,3.68 -2.2,6.88 -5.1,8.8l0 0zm-4.24 -16.76l0 -5.37c5.74,0.34 10.33,4.93 10.67,10.67l-5.37 0c-0.31,-2.79 -2.51,-4.99 -5.3,-5.3l0 0zm-8 7.3c0,0.85 0.18,1.66 0.51,2.4l-4.64 2.68c-0.77,-1.54 -1.2,-3.26 -1.2,-5.08 0,-6.04 4.72,-10.98 10.67,-11.34l0 5.38c-3,0.33 -5.34,2.86 -5.34,5.96l0 0zm6 11.33c-3.96,0 -7.44,-2 -9.46,-5.09l4.64 -2.68c1.09,1.48 2.82,2.44 4.82,2.44 0.86,0 1.67,-0.18 2.4,-0.51l2.68 4.64c-1.53,0.77 -3.25,1.2 -5.08,1.2z"/>
</svg>
