<svg xmlns="http://www.w3.org/2000/svg" viewBox="0 0 24 24">
   <path d="M8.4 10.8l0 2.4 -2.4 0 0 -2.4 2.4 0 0 0zm4.8 0l0 2.4 -2.4 0 0 -2.4 2.4 0 0 0zm4.8 0l0 2.4 -2.4 0 0 -2.4 2.4 0 0 0zm2.4 -8.4c1.32,0 2.4,1.08 2.4,2.4l0 16.8c0,1.32 -1.08,2.4 -2.4,2.4l-16.8 0c-1.33,0 -2.4,-1.08 -2.4,-2.4l0 -16.8c0,-1.32 1.08,-2.4 2.4,-2.4l1.2 0 0 -2.4 2.4 0 0 2.4 9.6 0 0 -2.4 2.4 0 0 2.4 1.2 0 0 0zm0 19.2l0 -13.2 -16.8 0 0 13.2 16.8 0 0 0zm-12 -6l0 2.4 -2.4 0 0 -2.4 2.4 0 0 0zm4.8 0l0 2.4 -2.4 0 0 -2.4 2.4 0 0 0zm4.8 0l0 2.4 -2.4 0 0 -2.4 2.4 0z"/>
</svg>
