<svg xmlns="http://www.w3.org/2000/svg" viewBox="0 0 24 24">
   	<path d="M17.71 14.86l2.29 0 0 3.43 3.43 0 0 2.28 -3.43 0 0 3.43 -2.29 0 0 -3.43 -3.42 0 0 -2.28 3.42 0 0 -3.43 0 0zm-6.28 -14.86l10.86 5.71 0 2.29 -21.72 0 0 -2.29 10.86 -5.71 0 0zm5.14 10.28l3.43 0 0 2.38 -1.14 -0.09c-0.8,0 -1.57,0.14 -2.29,0.39l0 -2.68 0 0zm-16 13.72l0 -3.43 11.52 0c0.22,1.3 0.81,2.48 1.66,3.43l-13.18 0 0 0zm9.14 -13.72l3.43 0 0 5.35c-0.52,0.79 -0.89,1.68 -1.05,2.66l-2.38 0 0 -8.01 0 0zm-6.85 0l3.43 0 0 8.01 -3.43 0 0 -8.01z"/>
</svg>
